<svg enable-background="new 0 0 35 42" viewBox="0 0 35 42" xmlns="http://www.w3.org/2000/svg"><path d="m34.7 13c.1-1.8-1.6-3.6-2.8-4.5v-.1c0-.4 0-.9-.1-1.2-.2-.6-.9-.8-1.3-.9.1-1.6-1.1-2.1-2-2.4-.2-.1-.4-.1-.5-.2.1-.6.1-1.1-.2-1.5-.5-.9-1.9-1.3-2.7-1.4s-1.7-.1-1.7-.1c-3 .3-5.2 2-6.9 3.3-.1.1-.3.2-.4.3-.1-.2-.3-.6-.3-1-.2-.8-.5-1.8-1.5-1.8s-1.4.9-1.3 1.5l.4 2.1c.4 1.7-.9 3-.9 3.1h-1.7c-.3 0-.6.1-1.1.1-3.3.3-6.3.6-6.4 2.1-.1.9.5 1.3.9 1.5.2.1.4.2.5.3-.9.5-2.1 1.3-2.1 2.4 0 .7.4 1 .7 1.3.1.1.2.2.3.3-.8 1.2-.8 3.3-.1 4.4-.3.6-.5 1.3-.7 2v1.2c.1.4.2.6.3.9.1.2.2.4.2.6 0 .4-.2.9-.4 1.4-.4.8-.8 1.8-.2 2.8-.1.1-.1.1-.2.2-.8.9-1.6 1.7-1.9 3.3v1c.2.8.4 1.4.8 2 0 .1-.1.2-.1.3-.2.5-.4.9-.4 1.6 0 1.6.9 2.9 2.5 3.3.4.1.9.2 1.3.2 1.4 0 2.8-.6 3.6-1.7h1.3c2.3-.5 3.8-1.7 4.5-3.6h.6s.5 0 .7 0c3.1-.5 4.8-2.2 5.1-5.1 3.3-.1 4-2.7 4.3-5.3 2.1-1.2 3.7-3.8 3.1-6.9.9.2 1.8 0 2.3-.5s.7-1.2.4-1.9c1.9-.6 4-1.4 4.1-3.4zm-4.5-5c-.2.5-.7.9-1.3 1.3-.7.5-1.4 1.1-1.7 1.9-.5-.1-1-.3-1.5-.4-.2-.1-.4-.1-.6-.2.4-.4.9-.8 1.7-1.3.2-.1.4-.2.5-.3.9-.5 2-1.1 2.9-1zm-9.9 16.3c-.4-.2-1.9-.5-2.1-.6.2-.1 1.6-.5 2-.7.1.3.3.5.5.8-.1.1-.3.5-.4.5zm-1.9-2.2-.2.1c-.1.1-.4.2-.6.2-1.1-.3-2.2-1.9-2.1-3 0-.2.1-.4.3-.7.1-.2.3-.5.4-.8.7-.1 1.4-.4 1.9-.7.8.6 1.7 1.3 2.8 2.2-.2 1.5-1.1 2.5-2.5 2.7zm-9.6-3.2c.3 1 .9 1.6 1.8 1.9-.7 1.9-2.1 3.3-4.3 3.8 0 0-1-.1-1.1-.2l-.1-.1c-.8-.4-.5-1.3.1-2.6.2-.4.3-.8.4-1.1.3-.2.5-.3.7-.5.7-.5 1.5-1 2.5-1.2zm-1.3-3.5c.5-.3.9-.5 1.3-.8.1.1.1.4.1.8-.5.1-1 0-1.4 0zm4.6 5.8h.2.6c.6-.1 1.1-.3 1.4-.6.1.5.4.9.6 1.3.1.2.2.3.3.5s.2.4.4.7.4.6.4.8c-.1.8-2 2.2-3.3 2.3-1.5.1-2.7-.4-3.3-1.5.7-.5 1.9-1.4 2.7-3.5zm8.6-3.9c-.5-.4-1-.9-1.6-1.2.9-1.6.9-4.1.6-5.9.1.1.2.1.4.2.4 2 1 4 1.8 5.7-.2.8-.3 1.2-.7 1.7-.2-.3-.3-.4-.5-.5zm1.1-6.2c.4.1.7.3 1.1.4l.6.3c.3 1.2.8 2.3 1.3 3.3.2.5.5.9.6 1.4-.8.2-1.2-.1-2.1-.8-.1-.3-.2-.6-.3-.9-.5-1.2-.9-2.4-1.2-3.7zm6.1-4.3.7-.1v.1c-2.4 1.1-4.2 2.2-5.3 3.3-.3-.1-.6-.3-.9-.4-.2-.1-.5-.2-.7-.3 1.3-1.6 3.7-2.1 6.2-2.6zm-.5-1.4s.1 0 0 0c-2.4.5-5.3 1.3-7.1 3.3-.2-.1-.3-.2-.5-.3s-.3-.2-.5-.3c1.2-2 4-2.9 6.6-3.6.6.3 1 .6 1.5.9zm-3.1-3c.4.1 1 .2 1.4.5-2.8.6-5.9 1.7-7.6 4.3-.2-.2-.3-.4-.5-.7-.1-.2-.2-.3-.3-.5 1.5-1.9 4.1-3.8 7-3.6zm-8.1 4.8c1.7 2.1 2.8 6.7 1.1 8.5-.5.6-1 .8-1.9.2-.1-.8-.2-1.6-.3-2.3-.2-1.6-.3-3-.6-4.5.6-.5 1.2-1.2 1.7-1.9zm-3 3.4c.1.5.2 1.1.3 1.7-.1 0-.2 0-.3.1-.1 0-.1 0-.2 0-.1-.5-.2-1-.3-1.4 0-.1.3-.3.5-.4zm-1 3.9c.3-.4.7-.7 1.4-.8v.1c0 1.2.1 3.2 1.1 3.8-.3.7-.8 1.4-1.4 1.7s-1.3.4-2.1.1-1.1-1.2-1.3-3c.2-.3.6-.5.9-.7l.3-.3.1-.1c.2-.3.5-.6.8-.8zm-2.3-.8.2-.2c.5-.5.9-1 1.5-1.4.2 1-.4 1.6-1.3 2.3-.1-.3-.2-.5-.4-.7zm1.9-4c-.3.3-.5.5-.8.8s-.6.5-.8.8c-1.1-.1-2.4-.1-3.1.6l-.1.1c-.1-.5-.4-.9-.7-1.1 1.5-.7 3.5-1.1 5.5-1.2zm-6.2 4.1c.5-.4.7-.6 1.2-1.2.9.2 1 .2 1.6 0h.1c-.2.1-.3.3-.4.4-1 .9-2.4 1.8-3.1 1.7-.1 0-.2-.1-.3-.1.2-.3.6-.5.9-.8zm-.3 2.6c.4 0 .9.1 1.4.2.4.1.8.2 1.1.2h.3.4v.8c-1.3.2-2.7.8-3.9 1.5-.2-.7.2-2 .7-2.7zm-.8 10.7c.1-.4.2-.9.3-1.3 1.3.2 2.6-.3 3.4-.6.1.1.1.3.2.4-.2.2-.4.4-.7.6-.9.8-1.7 1.6-2.1 3-.4 0-.9 0-1.4 0-.1-.6.1-1.3.3-2.1zm-2.1 5.5c.7-2.1 2.6-2.1 2.6-2.1.1 0 .5-.1.6-.1l.1.3c.4 1 1 1.9 1.7 2.6-.2.7-.5 1.2-.8 1.7-.2.2-.3.5-.4.7-.8.3-2.1.2-2.6-.1-1-.8-1.6-1.9-1.2-3zm2.8 7.1c-1 .1-2.1-.4-2.5-1.2-.3-.5-.2-1.1.1-1.7.1 0 .2.1.3.1.4.1.7.3 1.1.4h1.3c.2 0 .4 0 .5-.1.1.6.4 1.1.7 1.5-.3.8-1 .9-1.5 1zm6.6-2.9c-.7.9-2.1 1.6-3.6 1-.2-.1-.8-.4-.8-.9s.3-.9.6-1.4.6-1 .8-1.7c1.1.3 2.6.3 3.5-.1.5 1.1.1 2.4-.5 3.1zm-1.5-4.3c-2.8-.2-3.2-2.2-3.2-2.2 0-.1 0-.2 0-.3 0 0 .2-1.1.8-1.7.5-.7 1.3-1.2 1.5-1.5.8.5 1.8.9 3.1 1-.2.8.1 1.7.8 2.6-.3 1.4-1.7 2-3 2.1zm8.3-1.3c-.2 1.3-.6 2-1.4 2.6s-1.9.7-3.3.4c-.1-.3-.2-.6-.4-.9-.1-.1-.1-.3-.2-.4.1-.2.3-.4.4-.5.3-.4.6-.7.8-1.2.1 0 .2.1.2.1.3.1 1.6.2 1.9.1.6-.1 1.9-.5 2-.5zm-.2-2.3c-.4 1-1.3 1.2-1.9 1.2-1 0-2.1-.5-2.5-1.2-.3-.5-.2-1 .1-1.5.9-.3 1.5-.9 2-1.4.4-.4.8-.8 1.2-1 .1 0 .9 0 2.2.5-.2.6-.8 2.7-1.1 3.4zm4.6-2.5c-.5 2.3-.8 3.2-2.5 3.1-.5 0-.6-.1-.6-.1s0 0 .1-.2c.4-1.8.7-3 1.6-4 .5.2 1.1.4 1.7.4-.2.2-.2.5-.3.8zm3.1-4.4c-.6 1.2-1 1.5-2.2 1.9-.6.2-1.5.1-1.9-.1-.3-.2-.8-1.2-.8-1.7 0-.1.1-.2.2-.3.2-.2.5-.5.6-.9.1-.3.1-.7.2-1 0-.2 0-.3 0-.4.1-.3.3-.6.5-.8.2-.3.4-.5.5-.9.1.1.3.1.4.2.4.2.8.4 1.4.5.1 0 .3 0 .5-.1.1 0 .3-.1.4-.1.3.5.7 1.4.2 3.7zm-.3-8.4c-.2-.5-.4-.9-.5-1.3.1 0 .8.3 1.1.3.3.9.7 1.5 1.2 2.1.5.7 1 1.3 1.2 2.3-1.4.3-2.1-1.1-3-3.4zm3.8 1h-.2c-.6-.6-1-1.1-1.2-1.6 1.4.3 2.7.5 4 .6-.6.5-1.6.7-2.6 1zm2.5-2.6c-1.1-.1-2.3-.2-3.2-.5.5-.6 1.4-1.3 2.1-1.8.7.4 1 1.1 1.4 2 0 .1.1.2.1.3-.2 0-.3 0-.4 0z" fill="#111"/></svg>